<svg width="28" height="28" viewBox="0 0 28 28" fill="none" xmlns="http://www.w3.org/2000/svg">
<rect width="28" height="28" rx="8" fill="#00A63E"/>
<path d="M20 10H22.5C23.88 10 25 11.045 25 12.333V14.667C25 15.955 23.88 17 22.5 17H20M8.083 7H18.917C19.0588 6.9996 19.1993 7.02715 19.3305 7.08106C19.4617 7.13497 19.581 7.21419 19.6816 7.3142C19.7821 7.41421 19.862 7.53304 19.9166 7.66393C19.9713 7.79481 19.9996 7.93517 20 8.077V16.692C20 19.072 18.06 21 15.667 21H11.333C8.94 21 7 19.071 7 16.692V8.077C7.00039 7.93517 7.02872 7.79481 7.08336 7.66393C7.138 7.53304 7.21788 7.41421 7.31844 7.3142C7.41901 7.21419 7.53829 7.13497 7.66947 7.08106C7.80066 7.02715 7.94117 6.9996 8.083 7Z" stroke="#DCFCE7" stroke-width="2" stroke-linecap="round" stroke-linejoin="round"/>
<path d="M15 16L17 14L15 12M12 12L10 14L12 16" stroke="#DCFCE7" stroke-width="2" stroke-linecap="round" stroke-linejoin="round"/>
</svg>
